<?xml version="1.0" encoding="UTF-8" standalone="no"?>
<!DOCTYPE svg PUBLIC "-//W3C//DTD SVG 1.1//EN" "http://www.w3.org/Graphics/SVG/1.1/DTD/svg11.dtd">
<svg version="1.1" xmlns="http://www.w3.org/2000/svg" xmlns:xl="http://www.w3.org/1999/xlink" xmlns:dc="http://purl.org/dc/elements/1.1/" viewBox="341 251 673 315" width="673" height="315">
  <defs>
    <marker orient="auto" overflow="visible" markerUnits="strokeWidth" id="FilledArrow_Marker" stroke-linejoin="miter" stroke-miterlimit="10" viewBox="-1 -4 10 8" markerWidth="10" markerHeight="8" color="black">
      <g>
        <path d="M 8 0 L 0 -3 L 0 3 Z" fill="currentColor" stroke="currentColor" stroke-width="1"/>
      </g>
    </marker>
  </defs>
  <g id="Canvas_1" fill-opacity="1" stroke="none" stroke-opacity="1" stroke-dasharray="none" fill="none">
    <title>Canvas 1</title>
    <g id="Canvas_1_Layer_1">
      <title>Layer 1</title>
      <g id="Graphic_5">
        <path d="M 346.25 381.75 L 591.25 381.75 C 593.45914 381.75 595.25 383.54086 595.25 385.75 L 595.25 537.75 C 595.25 539.95914 593.45914 541.75 591.25 541.75 L 346.25 541.75 C 344.04086 541.75 342.25 539.95914 342.25 537.75 L 342.25 385.75 C 342.25 383.54086 344.04086 381.75 346.25 381.75 Z" fill="white"/>
        <path d="M 346.25 381.75 L 591.25 381.75 C 593.45914 381.75 595.25 383.54086 595.25 385.75 L 595.25 537.75 C 595.25 539.95914 593.45914 541.75 591.25 541.75 L 346.25 541.75 C 344.04086 541.75 342.25 539.95914 342.25 537.75 L 342.25 385.75 C 342.25 383.54086 344.04086 381.75 346.25 381.75 Z" stroke="black" stroke-linecap="round" stroke-linejoin="round" stroke-dasharray="4.0,4.0" stroke-width="1"/>
      </g>
      <g id="Graphic_3">
        <path d="M 369.5 309 L 568 309 C 571.866 309 575 312.134 575 316 L 575 358.5 C 575 362.366 571.866 365.5 568 365.5 L 369.5 365.5 C 365.634 365.5 362.5 362.366 362.5 358.5 L 362.5 316 C 362.5 312.134 365.634 309 369.5 309 Z" fill="white"/>
        <path d="M 369.5 309 L 568 309 C 571.866 309 575 312.134 575 316 L 575 358.5 C 575 362.366 571.866 365.5 568 365.5 L 369.5 365.5 C 365.634 365.5 362.5 362.366 362.5 358.5 L 362.5 316 C 362.5 312.134 365.634 309 369.5 309 Z" stroke="black" stroke-linecap="round" stroke-linejoin="round" stroke-width="1"/>
        <text transform="translate(367.5 328.026)" fill="black">
          <tspan font-family="Helvetica Neue" font-size="16" fill="black" x="63.922" y="15">Base layer</tspan>
        </text>
      </g>
      <g id="Graphic_4">
        <path d="M 369.5 400 L 568 400 C 571.866 400 575 403.134 575 407 L 575 516.5 C 575 520.366 571.866 523.5 568 523.5 L 369.5 523.5 C 365.634 523.5 362.5 520.366 362.5 516.5 L 362.5 407 C 362.5 403.134 365.634 400 369.5 400 Z" fill="white"/>
        <path d="M 369.5 400 L 568 400 C 571.866 400 575 403.134 575 407 L 575 516.5 C 575 520.366 571.866 523.5 568 523.5 L 369.5 523.5 C 365.634 523.5 362.5 520.366 362.5 516.5 L 362.5 407 C 362.5 403.134 365.634 400 369.5 400 Z" stroke="black" stroke-linecap="round" stroke-linejoin="round" stroke-width="1"/>
        <text transform="translate(367.5 434.078)" fill="black">
          <tspan font-family="Helvetica Neue" font-size="16" fill="black" x="58.146" y="15">Res(X)Block</tspan>
          <tspan font-family="Helvetica Neue" font-size="16" fill="black" x="85.098" y="33.448">With</tspan>
          <tspan font-family="Helvetica Neue" font-size="16" fill="black" x="62.874" y="51.895996">Bottleneck</tspan>
        </text>
      </g>
      <g id="Graphic_8">
        <text transform="translate(600.25 452.526)" fill="black">
          <tspan font-family="Helvetica Neue" font-size="16" fill="black" x="0" y="15">X n</tspan>
        </text>
      </g>
      <g id="Graphic_9">
        <path d="M 779 252 L 977.5 252 C 981.366 252 984.5 255.134 984.5 259 L 984.5 301.5 C 984.5 305.366 981.366 308.5 977.5 308.5 L 779 308.5 C 775.134 308.5 772 305.366 772 301.5 L 772 259 C 772 255.134 775.134 252 779 252 Z" fill="white"/>
        <path d="M 779 252 L 977.5 252 C 981.366 252 984.5 255.134 984.5 259 L 984.5 301.5 C 984.5 305.366 981.366 308.5 977.5 308.5 L 779 308.5 C 775.134 308.5 772 305.366 772 301.5 L 772 259 C 772 255.134 775.134 252 779 252 Z" stroke="black" stroke-linecap="round" stroke-linejoin="round" stroke-width="1"/>
        <text transform="translate(777 271.026)" fill="black">
          <tspan font-family="Helvetica Neue" font-size="16" fill="black" x="63.922" y="15">Base layer</tspan>
        </text>
      </g>
      <g id="Graphic_10">
        <path d="M 844.6062 396.5 L 980.5 396.5 C 982.7091 396.5 984.5 398.29086 984.5 400.5 L 984.5 483.5 C 984.5 485.70914 982.7091 487.5 980.5 487.5 L 844.6062 487.5 C 842.3971 487.5 840.6062 485.70914 840.6062 483.5 L 840.6062 400.5 C 840.6062 398.29086 842.3971 396.5 844.6062 396.5 Z" fill="white"/>
        <path d="M 844.6062 396.5 L 980.5 396.5 C 982.7091 396.5 984.5 398.29086 984.5 400.5 L 984.5 483.5 C 984.5 485.70914 982.7091 487.5 980.5 487.5 L 844.6062 487.5 C 842.3971 487.5 840.6062 485.70914 840.6062 483.5 L 840.6062 400.5 C 840.6062 398.29086 842.3971 396.5 844.6062 396.5 Z" stroke="black" stroke-linecap="round" stroke-linejoin="round" stroke-dasharray="4.0,4.0" stroke-width="1"/>
      </g>
      <g id="Graphic_11">
        <path d="M 859.1234 406.8797 L 965.9828 406.8797 C 969.8488 406.8797 972.9828 410.0137 972.9828 413.8797 L 972.9828 470.1203 C 972.9828 473.9863 969.8488 477.1203 965.9828 477.1203 L 859.1234 477.1203 C 855.2574 477.1203 852.1234 473.9863 852.1234 470.1203 L 852.1234 413.8797 C 852.1234 410.0137 855.2574 406.8797 859.1234 406.8797 Z" fill="white"/>
        <path d="M 859.1234 406.8797 L 965.9828 406.8797 C 969.8488 406.8797 972.9828 410.0137 972.9828 413.8797 L 972.9828 470.1203 C 972.9828 473.9863 969.8488 477.1203 965.9828 477.1203 L 859.1234 477.1203 C 855.2574 477.1203 852.1234 473.9863 852.1234 470.1203 L 852.1234 413.8797 C 852.1234 410.0137 855.2574 406.8797 859.1234 406.8797 Z" stroke="black" stroke-linecap="round" stroke-linejoin="round" stroke-width="1"/>
        <text transform="translate(857.1234 414.328)" fill="black">
          <tspan font-family="Helvetica Neue" font-size="16" fill="black" x="12.325688" y="15">Res(X)Block</tspan>
          <tspan font-family="Helvetica Neue" font-size="16" fill="black" x="39.277688" y="33.448">With</tspan>
          <tspan font-family="Helvetica Neue" font-size="16" fill="black" x="17.053687" y="51.895996">Bottleneck</tspan>
        </text>
      </g>
      <g id="Graphic_12">
        <text transform="translate(990.8585 432.776)" fill="black">
          <tspan font-family="Helvetica Neue" font-size="16" fill="black" x="0" y="15">X n</tspan>
        </text>
      </g>
      <g id="Graphic_14">
        <path d="M 779 330 L 858.5 330 C 862.366 330 865.5 333.134 865.5 337 L 865.5 368 C 865.5 371.866 862.366 375 858.5 375 L 779 375 C 775.134 375 772 371.866 772 368 L 772 337 C 772 333.134 775.134 330 779 330 Z" fill="white"/>
        <path d="M 779 330 L 858.5 330 C 862.366 330 865.5 333.134 865.5 337 L 865.5 368 C 865.5 371.866 862.366 375 858.5 375 L 779 375 C 775.134 375 772 371.866 772 368 L 772 337 C 772 333.134 775.134 330 779 330 Z" stroke="black" stroke-linecap="round" stroke-linejoin="round" stroke-width="1"/>
        <text transform="translate(777 343.276)" fill="black">
          <tspan font-family="Helvetica Neue" font-size="16" fill="black" x="20.414" y="15">Part 1</tspan>
        </text>
      </g>
      <g id="Graphic_15">
        <path d="M 898 330 L 977.5 330 C 981.366 330 984.5 333.134 984.5 337 L 984.5 368 C 984.5 371.866 981.366 375 977.5 375 L 898 375 C 894.134 375 891 371.866 891 368 L 891 337 C 891 333.134 894.134 330 898 330 Z" fill="white"/>
        <path d="M 898 330 L 977.5 330 C 981.366 330 984.5 333.134 984.5 337 L 984.5 368 C 984.5 371.866 981.366 375 977.5 375 L 898 375 C 894.134 375 891 371.866 891 368 L 891 337 C 891 333.134 894.134 330 898 330 Z" stroke="black" stroke-linecap="round" stroke-linejoin="round" stroke-width="1"/>
        <text transform="translate(896 343.276)" fill="black">
          <tspan font-family="Helvetica Neue" font-size="16" fill="black" x="20.414" y="15">Part 2</tspan>
        </text>
      </g>
      <g id="Graphic_16">
        <path d="M 779 509 L 977.5 509 C 981.366 509 984.5 512.134 984.5 516 L 984.5 558.5 C 984.5 562.366 981.366 565.5 977.5 565.5 L 779 565.5 C 775.134 565.5 772 562.366 772 558.5 L 772 516 C 772 512.134 775.134 509 779 509 Z" fill="white"/>
        <path d="M 779 509 L 977.5 509 C 981.366 509 984.5 512.134 984.5 516 L 984.5 558.5 C 984.5 562.366 981.366 565.5 977.5 565.5 L 779 565.5 C 775.134 565.5 772 562.366 772 558.5 L 772 516 C 772 512.134 775.134 509 779 509 Z" stroke="black" stroke-linecap="round" stroke-linejoin="round" stroke-width="1"/>
        <text transform="translate(777 528.026)" fill="black">
          <tspan font-family="Helvetica Neue" font-size="16" fill="black" x="42.138" y="15">Partial Transition</tspan>
        </text>
      </g>
      <g id="Line_17">
        <line x1="854.9853" y1="308.5" x2="843.5729" y2="322.3579" marker-end="url(#FilledArrow_Marker)" stroke="black" stroke-linecap="round" stroke-linejoin="round" stroke-width="1"/>
      </g>
      <g id="Line_19">
        <line x1="901.5147" y1="308.5" x2="912.9271" y2="322.3579" marker-end="url(#FilledArrow_Marker)" stroke="black" stroke-linecap="round" stroke-linejoin="round" stroke-width="1"/>
      </g>
      <g id="Line_21">
        <line x1="937.75" y1="375" x2="937.75" y2="386.6" marker-end="url(#FilledArrow_Marker)" stroke="black" stroke-linecap="round" stroke-linejoin="round" stroke-width="1"/>
      </g>
      <g id="Line_22">
        <line x1="912.5531" y1="477.1203" x2="912.5531" y2="499.1" marker-end="url(#FilledArrow_Marker)" stroke="black" stroke-linecap="round" stroke-linejoin="round" stroke-width="1"/>
      </g>
      <g id="Line_23">
        <line x1="818.75" y1="375" x2="818.75" y2="499.1" marker-end="url(#FilledArrow_Marker)" stroke="black" stroke-linecap="round" stroke-linejoin="round" stroke-width="1"/>
      </g>
      <g id="Line_24">
        <line x1="468.75" y1="365.5" x2="468.75" y2="390.1" marker-end="url(#FilledArrow_Marker)" stroke="black" stroke-linecap="round" stroke-linejoin="round" stroke-width="1"/>
      </g>
      <g id="Line_25">
        <line x1="468.75" y1="523.5" x2="468.75" y2="555.6012" marker-end="url(#FilledArrow_Marker)" stroke="black" stroke-linecap="round" stroke-linejoin="round" stroke-width="1"/>
      </g>
    </g>
  </g>
</svg>
